# AST/ASF file generated using VICON BodyLanguage
# -----------------------------------------------
:version 1.10
:name VICON
:units
  mass 1.0
  length 0.45
  angle deg
:documentation
   .ast/.asf automatically generated from VICON data using
   VICON BodyBuilder and BodyLanguage model FoxedUp or BRILLIANT.MOD
:root
   order TX TY TZ RX RY RZ
   axis XYZ
   position 0 0 0  
   orientation 0 0 0 
:bonedata
  begin
     id 1 
     name lhipjoint
     direction 0.643824 -0.71708 0.266994 
     length 2.52133 
     axis 0 0 0  XYZ
  end
  begin
     id 2 
     name lfemur
     direction 0.34202 -0.939693 0  
     length 7.51824  
     axis 0 0 20  XYZ
    dof rx ry rz
    limits (-160.0 20.0)
           (-70.0 70.0)
           (-60.0 70.0)
  end
  begin
     id 3 
     name ltibia
     direction 0.34202 -0.939693 0   
     length 7.3685   
     axis 0 0 20   XYZ
    dof rx
    limits (-10.0 170.0)
  end
  begin
     id 4 
     name lfoot
     direction 0.105419 -0.289636 0.951314   
     length 2.20972   
     axis -90 7.62852e-016 20   XYZ
    dof rx rz
    limits (-45.0 90.0)
           (-70.0 20.0)
  end
  begin
     id 5 
     name ltoes
     direction 1.53549e-011 -4.21833e-011 1   
     length 1.10139   
     axis -90 7.62852e-016 20   XYZ
    dof rx
    limits (-90.0 20.0)
  end
  begin
     id 6 
     name rhipjoint
     direction -0.608823 -0.743445 0.276811   
     length 2.43192  
     axis 0 0 0  XYZ 
  end
  begin
     id 7 
     name rfemur
     direction -0.34202 -0.939693 0   
     length 7.69715   
     axis 0 0 -20   XYZ
    dof rx ry rz
    limits (-160.0 20.0)
           (-70.0 70.0)
           (-70.0 60.0)
  end
  begin
     id 8 
     name rtibia
     direction -0.34202 -0.939693 0   
     length 7.44924   
     axis 0 0 -20   XYZ
    dof rx
    limits (-10.0 170.0)
 end
 begin
     id 9 
     name rfoot
     direction -0.103614 -0.284677 0.953007   
     length 2.22623  
     axis -90 -7.62852e-016 -20   XYZ
    dof rx rz
    limits (-45.0 90.0)
           (-20.0 70.0)
  end
  begin
     id 10 
     name rtoes
     direction -1.53537e-011 -4.22026e-011 1   
     length 1.11   
     axis -90 -7.62852e-016 -20   XYZ
    dof rx
    limits (-90.0 20.0)
  end
  begin
     id 11 
     name lowerback
     direction -0.0101212 0.99662 -0.0815298   
     length 2.08277   
     axis 0 0 0   XYZ
    dof rx ry rz
    limits (-20.0 45.0)
           (-30.0 30.0)
           (-30.0 30.0)
  end
  begin
     id 12 
     name upperback
     direction 0.024314 0.999591 -0.0150645   
     length 2.08524   
     axis 0 0 0   XYZ
    dof rx ry rz
    limits (-20.0 45.0)
           (-30.0 30.0)
           (-30.0 30.0)
  end
  begin
     id 13 
     name thorax
     direction 0.0285959 0.999323 0.0231357   
     length 2.09645   
     axis 0 0 0   XYZ
    dof rx ry rz
    limits (-20.0 45.0)
           (-30.0 30.0)
           (-30.0 30.0)
  end
  begin
     id 14 
     name lowerneck
     direction -0.065512 0.979301 0.191515   
     length 1.63798   
     axis 0 0 0   XYZ
    dof rx ry rz
    limits (-20.0 45.0)
           (-30.0 30.0)
           (-30.0 30.0)
  end
  begin
     id 15 
     name upperneck
     direction 0.0498479 0.98191 -0.182667   
     length 1.68731   
     axis 0 0 0   XYZ
    dof rx ry rz
    limits (-20.0 45.0)
           (-30.0 30.0)
           (-30.0 30.0)
  end
  begin
     id 16
     name head
     direction 0.0230358 0.996257 -0.0833175  
     length 1.69785  
     axis 0 0 0   XYZ
    dof rx ry rz
    limits (-20.0 45.0)
           (-30.0 30.0)
           (-30.0 30.0)
  end
  begin
     id 17 
     name lclavicle
     direction 0.967963 0.201165 -0.150269  
     length 3.63976  
     axis 0 0 0   XYZ
    dof ry rz
    limits (-20.0 10.0)
           (0.0 20.0)
  end
  begin
     id 18 
     name lhumerus
     direction 1 -4.48954e-011 -2.92837e-028   
     length 5.32462   
     axis 180 -30 -90   XYZ
    dof rx ry rz
    limits (-60.0 90.0)
           (-90.0 90.0)
           (-90.0 90.0)
  end
  begin
     id 19
     name lradius
     direction 1 -4.48958e-011 -6.39511e-027   
     length 3.48402   
     axis 180 -30 -90   XYZ
    dof rx
    limits (-10.0 170.0)
  end
  begin
     id 20
     name lwrist
     direction 1 -4.48975e-011 -1.1413e-026   
     length 1.74201   
     axis 6.88575e-015 90 90   XYZ
    dof ry
    limits (-180.0 0.0)
 end
  begin
     id 21 
     name lhand
     direction 1 -4.48899e-011 -2.28192e-026   
     length 0.572476   
     axis 1.45643e-014 90 90   XYZ
    dof rx rz
    limits (-90.0 90.0)
           (-45.0 45.0)
  end
  begin
     id 22 
     name lfingers
     direction 1 -4.49155e-011 -4.5684e-026   
     length 0.461545   
     axis 2.91283e-014 90 90   XYZ
    dof rx
    limits (0.0 90.0)
  end
  begin
     id 23
     name lthumb
     direction 0.707107 -6.34943e-011 0.707107   
     length 0.662688   
     axis -90 45 -2.25915e-014   XYZ
    dof rx rz
    limits (-45.0 45.0)
           (-45.0 45.0)
  end
  begin
     id 24 
     name rclavicle
     direction -0.964103 0.264019 -0.0282629   
     length 3.54491  
     axis 0 0 0   XYZ 
    dof ry rz
    limits (-10.0 20.0)
           (-20.0 0.0)
  end
  begin
     id 25 
     name rhumerus
     direction -1 -4.48964e-011 -2.45032e-027  
     length 5.33589   
     axis 180 30 90   XYZ
    dof rx ry rz
    limits (-90.0 60.0)
           (-90.0 90.0)
           (-90.0 90.0)
  end
  begin
     id 26 
     name rradius
     direction -1 -4.48987e-011 -1.55093e-027   
     length 3.64134   
     axis 180 30 90   XYZ
    dof rx
    limits (-10.0 170.0)
  end
  begin
     id 27 
     name rwrist
     direction -1 -4.4897e-011 -1.14128e-026   
     length 1.82067   
     axis 6.88575e-015 -90 -90   XYZ
    dof ry
    limits (-180.0 0.0)
  end
  begin
     id 28
     name rhand
     direction -1 -4.49021e-011 -2.28301e-026   
     length 0.734811   
     axis 1.45643e-014 -90 -90   XYZ
    dof rx rz
    limits (-90.0 90.0)
           (-45.0 45.0)
  end
  begin
     id 29
     name rfingers
     direction -1 -4.48862e-011 -4.56319e-026   
     length 0.592424   
     axis 2.91283e-014 -90 -90   XYZ
    dof rx
    limits (0.0 90.0)
  end
  begin
     id 30
     name rthumb
     direction -0.707107 -6.34978e-011 0.707107   
     length 0.850605   
     axis -90 -45 2.25915e-014   XYZ
    dof rx rz
    limits (-45.0 45.0)
           (-45.0 45.0)
  end
:hierarchy
  begin
    root lhipjoint rhipjoint lowerback
    lhipjoint lfemur
    lfemur ltibia
    ltibia lfoot
    lfoot ltoes
    rhipjoint rfemur
    rfemur rtibia
    rtibia rfoot
    rfoot rtoes
    lowerback upperback
    upperback thorax
    thorax lowerneck lclavicle rclavicle
    lowerneck upperneck
    upperneck head
    lclavicle lhumerus
    lhumerus lradius
    lradius lwrist
    lwrist lhand lthumb
    lhand lfingers
    rclavicle rhumerus
    rhumerus rradius
    rradius rwrist
    rwrist rhand rthumb
    rhand rfingers
  end

#!OML:ASF F:\VICON\USERDATA\INSTALL\rory3\rory3.ASF
:FULLY-SPECIFIED
:DEGREES
116
root -3.31513 17.8134 -5.38041 3.12485 17.0897 1.20511
lowerback 2.07601 -0.189129 -2.35804
upperback 0.966111 -0.280971 2.97653
thorax -0.145493 -0.151622 4.39668
lowerneck -20.0103 7.30314 -4.56826
upperneck 31.8771 12.44 0.516589
head 13.8666 4.94558 3.13392
rclavicle 1.93815e-014 2.3059e-014
rhumerus -35.6005 -15.387 -72.5457
rradius 28.6663
rwrist 20.1193
rhand -18.8356 -0.431286
rfingers 7.12502
rthumb 7.46383 -30.2796
lclavicle 1.93815e-014 2.3059e-014
lhumerus 14.7268 0.543405 60.4225
lradius 27.7445
lwrist -11.4515
lhand -13.8784 33.3426
lfingers 7.12502
lthumb 12.2463 62.964
rfemur -12.4243 6.95217 12.562
rtibia 31.3957
rfoot -19.7125 -5.80601
rtoes -4.58074
lfemur -7.93937 1.37466 -19.7837
ltibia 23.7909
lfoot -14.7403 4.69972
ltoes -16.7519
117
root -3.36376 17.8154 -5.36183 3.0365 17.1318 1.04567
lowerback 2.2816 -0.187405 -2.23833
upperback 0.865121 -0.276462 3.03462
thorax -0.365235 -0.143474 4.39055
lowerneck -19.8484 7.38351 -4.58596
upperneck 31.7653 12.5055 0.619057
head 13.7688 4.99865 3.17083
rclavicle 1.27222e-014 -3.65764e-014
rhumerus -35.5595 -15.1714 -72.6355
rradius 28.875
rwrist 20.0472
rhand -18.7824 -0.665631
rfingers 7.12502
rthumb 7.5152 -30.5121
lclavicle 1.27222e-014 -3.65764e-014
lhumerus 16.0286 2.12485 59.8564
lradius 26.8262
lwrist -11.9376
lhand -14.0216 33.1845
lfingers 7.12502
lthumb 12.1083 62.8141
rfemur -12.2433 6.72691 12.9432
rtibia 31.1831
rfoot -19.4378 -5.62008
rtoes -3.35586
lfemur -7.90267 1.28741 -19.4182
ltibia 23.8493
lfoot -14.7463 4.75826
ltoes -16.8814
118
root -3.40685 17.8179 -5.34073 2.94531 17.165 0.988209
lowerback 2.31711 -0.192139 -2.15051
upperback 0.909472 -0.281467 3.05184
thorax -0.339501 -0.146932 4.35873
lowerneck -19.8452 7.46751 -4.54584
upperneck 31.6133 12.6034 0.603664
head 13.7027 5.05207 3.16618
rclavicle 3.67752e-015 7.95139e-015
rhumerus -35.198 -14.954 -72.8373
rradius 28.8678
rwrist 19.4841
rhand -19.1023 -0.341482
rfingers 7.12502
rthumb 7.2064 -30.1988
lclavicle 3.67752e-015 7.95139e-015
lhumerus 17.4016 3.5456 59.1789
lradius 26.0536
lwrist -12.1018
lhand -14.5161 33.0036
lfingers 7.12502
lthumb 11.6314 62.6607
rfemur -12.0298 6.34542 13.2016
rtibia 30.97
rfoot -19.4058 -5.51733
rtoes -3.26414
lfemur -7.71673 0.909634 -19.2034
ltibia 23.7542
lfoot -14.6745 5.0852
ltoes -17.1268
119
root -3.44934 17.8201 -5.31519 2.93974 17.0755 1.06376
lowerback 2.31878 -0.165956 -2.20103
upperback 0.915353 -0.247927 3.03047
thorax -0.337321 -0.130352 4.36437
lowerneck -19.8724 7.56733 -4.50743
upperneck 31.5674 12.742 0.579749
head 13.6888 5.11532 3.17245
rclavicle -4.27387e-015 4.77083e-015
rhumerus -34.9183 -14.6836 -73.0422
rradius 28.9626
rwrist 18.8951
rhand -19.23 -0.189719
rfingers 7.12502
rthumb 7.08313 -30.0512
lclavicle -4.27387e-015 4.77083e-015
lhumerus 18.6061 4.8912 58.4572
lradius 25.41
lwrist -12.2738
lhand -15.1061 33.0266
lfingers 7.12502
lthumb 11.0624 62.7151
rfemur -11.9192 5.93365 13.3089
rtibia 30.8285
rfoot -19.6186 -5.37126
rtoes -4.25124
lfemur -7.4935 0.52959 -19.154
ltibia 23.5082
lfoot -14.5139 5.55217
ltoes -17.4558
120
root -3.49076 17.8219 -5.28476 3.01226 16.9257 1.28803
lowerback 2.25554 -0.128183 -2.3981
upperback 0.875717 -0.201268 2.98369
thorax -0.346264 -0.106597 4.42632
lowerneck -19.8061 7.66654 -4.51204
upperneck 31.595 12.8739 0.621261
head 13.6772 5.17944 3.20724
rclavicle -6.13251e-014 -4.77083e-015
rhumerus -34.7922 -14.3641 -73.1428
rradius 29.1761
rwrist 18.6161
rhand -19.2178 0.0691076
rfingers 7.12502
rthumb 7.09489 -29.792
lclavicle -6.13251e-014 -4.77083e-015
lhumerus 19.5457 5.67028 57.5147
lradius 24.871
lwrist -11.6554
lhand -15.4478 33.557
lfingers 7.12502
lthumb 10.7328 63.2628
rfemur -11.8686 5.50728 13.2391
rtibia 30.7741
rfoot -19.6548 -4.95584
rtoes -4.11967
lfemur -7.25703 0.332222 -19.2592
ltibia 23.2022
lfoot -14.3683 5.88957
ltoes -17.4855
121
root -3.5342 17.8262 -5.2638 3.08665 16.7929 1.39785
lowerback 2.24184 -0.107576 -2.47106
upperback 0.811958 -0.174692 2.97117
thorax -0.406395 -0.0912611 4.45422
lowerneck -19.7106 7.76883 -4.50812
upperneck 31.6016 12.9978 0.675949
head 13.6496 5.24494 3.24133
rclavicle 7.15625e-015 6.91771e-014
rhumerus -34.6296 -14.0319 -73.253
rradius 29.413
rwrist 18.5755
rhand -19.1747 0.0522189
rfingers 7.12502
rthumb 7.1365 -29.8075
lclavicle 7.15625e-015 6.91771e-014
lhumerus 20.4108 6.32355 56.5624
lradius 24.2749
lwrist -10.7265
lhand -15.3304 34.1998
lfingers 7.12502
lthumb 10.846 63.8997
rfemur -11.8983 5.20328 13.2937
rtibia 30.7768
rfoot -19.5405 -4.76725
rtoes -4.2662
lfemur -7.10206 -0.066336 -19.2526
ltibia 22.9409
lfoot -14.2148 6.3994
ltoes -17.5383
122
root -3.57906 17.8345 -5.24741 3.12721 16.6742 1.33815
lowerback 2.25621 -0.0967921 -2.43582
upperback 0.76682 -0.158601 3.04022
thorax -0.462257 -0.0813621 4.50587
lowerneck -19.7881 7.84412 -4.54824
upperneck 31.6934 13.1218 0.719701
head 13.6938 5.29401 3.29315
rclavicle -2.75317e-014 1.59028e-015
rhumerus -34.4306 -13.7645 -73.3196
rradius 29.7444
rwrist 18.5949
rhand -19.0634 -0.021529
rfingers 7.12502
rthumb 7.24397 -29.8775
lclavicle -2.75317e-014 1.59028e-015
lhumerus 21.3559 7.21754 55.7973
lradius 23.5334
lwrist -10.15
lhand -14.8721 34.4862
lfingers 7.12502
lthumb 11.2881 64.1624
rfemur -11.9758 5.10042 13.5316
rtibia 30.781
rfoot -19.5041 -4.72323
rtoes -4.68307
lfemur -7.02898 -0.522631 -19.0661
ltibia 22.7836
lfoot -14.1234 6.93526
ltoes -17.3804
123
root -3.62727 17.8431 -5.23211 3.11671 16.583 1.11785
lowerback 2.23429 -0.10578 -2.20386
upperback 0.777079 -0.164855 3.09531
thorax -0.439467 -0.0848524 4.43135
lowerneck -19.8296 7.94535 -4.50475
upperneck 31.6375 13.2455 0.732854
head 13.6755 5.35663 3.3103
rclavicle 2.14687e-014 2.38542e-014
rhumerus -34.1485 -13.5947 -73.48
rradius 30.0414
rwrist 18.5057
rhand -19.0658 0.176852
rfingers 7.12502
rthumb 7.24162 -29.6792
lclavicle 2.14687e-014 2.38542e-014
lhumerus 22.3246 8.12269 54.9502
lradius 22.7917
lwrist -9.82991
lhand -14.6135 34.6571
lfingers 7.12502
lthumb 11.5375 64.3196
rfemur -12.0691 5.16497 13.9483
rtibia 30.7607
rfoot -19.4728 -4.74293
rtoes -4.73971
lfemur -7.02428 -0.82779 -18.6905
ltibia 22.7163
lfoot -14.0315 7.38309
ltoes -17.6282
124
root -3.67985 17.8486 -5.21747 3.00107 16.4155 0.837006
lowerback 2.31363 -0.0968177 -1.86513
upperback 0.809809 -0.146157 3.09591
thorax -0.453151 -0.0753613 4.23926
lowerneck -19.7491 8.07668 -4.36957
upperneck 31.4722 13.3534 0.765734
head 13.5894 5.43501 3.30462
rclavicle -2.34566e-014 8.74653e-015
rhumerus -33.8049 -13.4996 -73.7641
rradius 30.2992
rwrist 18.2773
rhand -19.0085 0.294244
rfingers 7.12502
rthumb 7.29695 -29.5599
lclavicle -2.34566e-014 8.74653e-015
lhumerus 23.5468 9.9347 54.6667
lradius 21.6782
lwrist -11.0792
lhand -14.2468 34.2961
lfingers 7.12502
lthumb 11.8911 63.9384
rfemur -12.0846 5.34385 14.4404
rtibia 30.7097
rfoot -19.3277 -4.70321
rtoes -4.24655
lfemur -6.94365 -1.11488 -18.2464
ltibia 22.6887
lfoot -13.9115 7.92249
ltoes -18.0286
125
root -3.73127 17.8538 -5.19759 2.98151 16.2166 0.758432
lowerback 2.2989 -0.0768725 -1.86497
upperback 0.833648 -0.119323 3.15735
thorax -0.422584 -0.0627597 4.30226
lowerneck -19.6823 8.20078 -4.31752
upperneck 31.4062 13.5073 0.757371
head 13.546 5.51249 3.30969
rclavicle -1.59028e-014 -9.54166e-015
rhumerus -33.4631 -13.198 -73.9263
rradius 30.6351
rwrist 17.9835
rhand -19.0256 0.0998566
rfingers 7.12502
rthumb 7.28048 -29.7549
lclavicle -1.59028e-014 -9.54166e-015
lhumerus 25.1177 13.2657 55.6783
lradius 20.138
lwrist -14.5077
lhand -13.8024 33.5673
lfingers 7.12502
lthumb 12.3196 63.1844
rfemur -12.0979 5.53949 14.7036
rtibia 30.642
rfoot -19.2386 -4.61533
rtoes -3.91562
lfemur -6.89345 -1.35482 -18.02
ltibia 22.6924
lfoot -13.8385 8.43808
ltoes -18.5905
